<svg width="59" height="62" viewBox="0 0 59 62" fill="none" xmlns="http://www.w3.org/2000/svg">
<g filter="url(#filter0_d_2977_200598)">
<path d="M29.5 12C39.1649 12 46.9999 19.8351 47 29.5C47 34.6766 44.7513 39.3273 41.1787 42.5312L41.2002 42.5527L40.9678 42.7178C40.1223 43.4519 39.2064 44.107 38.2305 44.6699L32.4287 48.8066C30.6917 50.0452 28.3601 50.0452 26.623 48.8066L21.0117 44.8057C15.6374 41.8187 12 36.0846 12 29.5C12.0001 19.8351 19.8351 12 29.5 12Z" fill="white"/>
</g>
<circle cx="29.5" cy="29.5" r="14.5" fill="#2A3EF4"/>
<path fill-rule="evenodd" clip-rule="evenodd" d="M28.5151 22.7554C29.1163 22.3861 29.8739 22.3859 30.4752 22.7549L36.1091 26.2118C36.6643 26.5524 37.0026 27.157 37.0026 27.8083L37.0027 35.6313C37.0027 36.2309 36.5166 36.7169 35.917 36.7169H33.7603C33.1608 36.7169 32.6747 36.2309 32.6747 35.6313V34.9519H26.3059V35.6313C26.3059 36.2309 25.8198 36.7169 25.2202 36.7169H23.0827C22.4832 36.7169 21.9971 36.2309 21.9971 35.6313L21.9971 27.8072C21.9971 27.1562 22.3351 26.5519 22.8897 26.2111L28.5151 22.7554ZM29.6927 24.0302C29.5717 23.9559 29.4193 23.956 29.2983 24.0303L23.6729 27.486C23.5613 27.5546 23.4933 27.6762 23.4933 27.8072L23.4934 35.2207H24.8096V29.5416C24.8096 28.942 25.2957 28.456 25.8952 28.456H33.0853C33.6849 28.456 34.171 28.942 34.171 29.5416V35.2207H35.5064L35.5064 27.8083C35.5064 27.6773 35.4383 27.5556 35.3266 27.4871L29.6927 24.0302ZM26.3059 33.4557H32.6747V32.5042H26.3059V33.4557ZM32.6747 29.9522V31.0079H26.3059V29.9522H32.6747Z" fill="white"/>
<defs>
<filter id="filter0_d_2977_200598" x="0" y="0" width="59" height="61.7356" filterUnits="userSpaceOnUse" color-interpolation-filters="sRGB">
<feFlood flood-opacity="0" result="BackgroundImageFix"/>
<feColorMatrix in="SourceAlpha" type="matrix" values="0 0 0 0 0 0 0 0 0 0 0 0 0 0 0 0 0 0 127 0" result="hardAlpha"/>
<feOffset/>
<feGaussianBlur stdDeviation="6"/>
<feColorMatrix type="matrix" values="0 0 0 0 0 0 0 0 0 0 0 0 0 0 0 0 0 0 0.2 0"/>
<feBlend mode="normal" in2="BackgroundImageFix" result="effect1_dropShadow_2977_200598"/>
<feBlend mode="normal" in="SourceGraphic" in2="effect1_dropShadow_2977_200598" result="shape"/>
</filter>
</defs>
</svg>
