<svg width="95" height="99" viewBox="0 0 95 99" fill="none" xmlns="http://www.w3.org/2000/svg">
<g filter="url(#filter0_d_2977_200626)">
<path d="M47.2002 19.2C62.6641 19.2 75.2001 31.7361 75.2002 47.2C75.2002 55.4825 71.602 62.9232 65.8857 68.0496L65.9199 68.0837L65.5586 68.3406C64.2029 69.5189 62.7327 70.5685 61.167 71.4714L51.8857 78.0906C49.1065 80.0722 45.3759 80.0723 42.5967 78.0906L33.6211 71.6912C25.0207 66.9125 19.2002 57.7364 19.2002 47.2C19.2003 31.7361 31.7363 19.2 47.2002 19.2Z" fill="white"/>
</g>
<circle cx="47.2002" cy="47.2" r="24" fill="#2232C3"/>
<path fill-rule="evenodd" clip-rule="evenodd" d="M45.45 35.2094C46.5186 34.5529 47.8655 34.5526 48.9346 35.2085L58.9504 41.3541C59.9373 41.9597 60.5388 43.0345 60.5388 44.1924L60.5389 58.0999C60.5389 59.1658 59.6748 60.0299 58.6089 60.0299H54.7748C53.7089 60.0299 52.8448 59.1658 52.8448 58.0999V56.8922H41.5224V58.0999C41.5224 59.1658 40.6583 60.0299 39.5924 60.0299H35.7924C34.7265 60.0299 33.8624 59.1659 33.8624 58.0999L33.8623 44.1904C33.8623 43.0331 34.4632 41.9588 35.4493 41.353L45.45 35.2094ZM47.5434 37.4757C47.3283 37.3438 47.0573 37.3438 46.8423 37.4759L36.8416 43.6195C36.6432 43.7414 36.5223 43.9575 36.5223 44.1904L36.5224 57.3699H38.8624V47.2739C38.8624 46.2079 39.7265 45.3439 40.7924 45.3439H53.5748C54.6407 45.3439 55.5048 46.208 55.5048 47.2739V57.3699H57.8789L57.8788 44.1924C57.8788 43.9594 57.7578 43.7432 57.5592 43.6214L47.5434 37.4757ZM41.5224 54.2322H52.8448V52.5406H41.5224V54.2322ZM52.8448 48.0039V49.8806H41.5224V48.0039H52.8448Z" fill="white"/>
<defs>
<filter id="filter0_d_2977_200626" x="0.00019455" y="-4.95911e-05" width="94.4" height="98.777" filterUnits="userSpaceOnUse" color-interpolation-filters="sRGB">
<feFlood flood-opacity="0" result="BackgroundImageFix"/>
<feColorMatrix in="SourceAlpha" type="matrix" values="0 0 0 0 0 0 0 0 0 0 0 0 0 0 0 0 0 0 127 0" result="hardAlpha"/>
<feOffset/>
<feGaussianBlur stdDeviation="9.6"/>
<feColorMatrix type="matrix" values="0 0 0 0 0 0 0 0 0 0 0 0 0 0 0 0 0 0 0.2 0"/>
<feBlend mode="normal" in2="BackgroundImageFix" result="effect1_dropShadow_2977_200626"/>
<feBlend mode="normal" in="SourceGraphic" in2="effect1_dropShadow_2977_200626" result="shape"/>
</filter>
</defs>
</svg>
