<svg preserveAspectRatio="none" width="100%" height="100%" overflow="visible" style="display: block;" viewBox="0 0 60 61.7356" fill="none" xmlns="http://www.w3.org/2000/svg">
<g id="Icon">
<g id="Union" filter="url(#filter0_d_0_12)">
<path d="M30 12C39.941 12 47.9999 20.059 48 30C48 38.1761 42.5482 45.077 35.082 47.2705L32.9287 48.8066C31.1917 50.0452 28.8601 50.0452 27.123 48.8066L25.0068 47.2969C17.495 45.1323 12 38.2085 12 30C12.0001 20.059 20.059 12 30 12Z" fill="var(--fill-0, white)"/>
</g>
<circle id="Ellipse 3164" cx="30" cy="29.5" r="14.5" fill="var(--fill-0, #2A3EF4)"/>
<g id="shop">
<path id="icon" d="M25.0464 21.625L25.0476 21.625L34.9019 21.625C35.2666 21.6257 35.6246 21.735 35.9264 21.9413L35.9297 21.9436C36.244 22.1613 36.4821 22.4735 36.6035 22.8376L37.7345 25.7891C37.8998 26.2102 37.9199 26.6726 37.7913 27.1065C37.6681 27.5223 37.4158 27.8863 37.0748 28.1524V35.8C37.0748 36.6699 36.3697 37.375 35.4998 37.375H24.4998C23.63 37.375 22.9248 36.6699 22.9248 35.8V28.1434C22.5807 27.8747 22.3269 27.5063 22.2051 27.0854C22.0772 26.6438 22.1032 26.1742 22.2779 25.7494L23.3431 22.8428C23.4639 22.4765 23.7028 22.1624 24.0186 21.9436L24.0219 21.9413C24.3237 21.735 24.6817 21.6257 25.0464 21.625ZM35.3491 28.5496L35.3417 28.5486L35.3343 28.5474C34.9033 28.4778 34.5011 28.2824 34.1834 27.9832C34.0882 27.8938 33.9547 27.8393 33.8103 27.8393C33.6658 27.8393 33.5322 27.8939 33.437 27.9834L33.4318 27.9883L33.4265 27.9931C33.0121 28.3665 32.4703 28.5703 31.9121 28.5703C31.354 28.5703 30.8122 28.3665 30.3978 27.9931L30.3934 27.9892L30.3891 27.9851C30.2909 27.8935 30.1539 27.8379 30.006 27.8379C29.8581 27.8379 29.7211 27.8935 29.6229 27.9851L29.6186 27.9892L29.6142 27.9931C29.1998 28.3665 28.658 28.5703 28.0999 28.5703C27.5417 28.5703 26.9999 28.3665 26.5855 27.9931L26.5802 27.9883L26.575 27.9834C26.4798 27.8939 26.3462 27.8393 26.2017 27.8393C26.0573 27.8393 25.9238 27.8938 25.8286 27.9832C25.5109 28.2824 25.1088 28.4778 24.6777 28.5474L24.6703 28.5486L24.6629 28.5496C24.534 28.5675 24.4043 28.5759 24.2748 28.5749V35.8C24.2748 35.9243 24.3755 36.025 24.4998 36.025H27.7249V32C27.7249 31.1301 28.4301 30.425 29.2999 30.425H30.6999C31.5698 30.425 32.2749 31.1301 32.2749 32V36.025H35.4998C35.6241 36.025 35.7248 35.9243 35.7248 35.8V28.575C35.5994 28.5754 35.4739 28.5669 35.3491 28.5496ZM29.0749 36.025H30.9249V32C30.9249 31.8757 30.8242 31.775 30.6999 31.775H29.2999C29.1757 31.775 29.0749 31.8757 29.0749 32V36.025ZM25.0484 22.975C24.9517 22.9753 24.8599 23.0043 24.7856 23.0546C24.7047 23.1112 24.6501 23.1877 24.6241 23.2691L24.6198 23.2825L23.535 26.2426L23.5287 26.2573C23.4677 26.4022 23.4586 26.5607 23.5018 26.7099C23.544 26.8556 23.6354 26.9896 23.7683 27.0889C23.8131 27.1177 23.8599 27.1438 23.9085 27.1671C24.0889 27.2225 24.2808 27.2386 24.4696 27.2135C24.6368 27.1851 24.7875 27.1093 24.9031 27.0004C25.2542 26.6702 25.7212 26.4893 26.2017 26.4893C26.6792 26.4893 27.1428 26.6675 27.4932 26.9938C27.6539 27.1368 27.8703 27.2203 28.0999 27.2203C28.3297 27.2203 28.5464 27.1366 28.7072 26.9931C29.0602 26.6663 29.5262 26.4879 30.006 26.4879C30.4858 26.4879 30.9518 26.6663 31.3048 26.9931C31.4656 27.1366 31.6823 27.2203 31.9121 27.2203C32.1417 27.2203 32.3581 27.1368 32.5189 26.9937C32.8692 26.6675 33.3329 26.4893 33.8103 26.4893C34.2908 26.4893 34.7573 26.6698 35.1084 26.9999C35.224 27.1088 35.3752 27.1851 35.5424 27.2135C35.7312 27.2386 35.9231 27.2225 36.1035 27.1671C36.151 27.1444 36.1968 27.1189 36.2407 27.0909C36.3675 26.9932 36.4553 26.8635 36.497 26.7228C36.5401 26.5775 36.5334 26.4232 36.4774 26.281L36.4762 26.278L35.3301 23.2872L35.3243 23.2691C35.2982 23.1877 35.2436 23.1111 35.1627 23.0545C35.0884 23.0043 34.9966 22.9753 34.9 22.975H25.0484Z" fill="var(--fill-0, white)"/>
</g>
</g>
<defs>
<filter id="filter0_d_0_12" x="0" y="0" width="60" height="61.7356" filterUnits="userSpaceOnUse" color-interpolation-filters="sRGB">
<feFlood flood-opacity="0" result="BackgroundImageFix"/>
<feColorMatrix in="SourceAlpha" type="matrix" values="0 0 0 0 0 0 0 0 0 0 0 0 0 0 0 0 0 0 127 0" result="hardAlpha"/>
<feOffset/>
<feGaussianBlur stdDeviation="6"/>
<feColorMatrix type="matrix" values="0 0 0 0 0 0 0 0 0 0 0 0 0 0 0 0 0 0 0.2 0"/>
<feBlend mode="normal" in2="BackgroundImageFix" result="effect1_dropShadow_0_12"/>
<feBlend mode="normal" in="SourceGraphic" in2="effect1_dropShadow_0_12" result="shape"/>
</filter>
</defs>
</svg>
