<svg preserveAspectRatio="none" width="100%" height="100%" overflow="visible" style="display: block;" viewBox="0 0 59 61.7356" fill="none" xmlns="http://www.w3.org/2000/svg">
<g id="Icon">
<g id="Union" filter="url(#filter0_d_0_12)">
<path d="M29.5 12C39.1649 12 46.9999 19.8351 47 29.5C47 34.6766 44.7513 39.3273 41.1787 42.5312L41.2002 42.5527L40.9678 42.7178C40.1223 43.4519 39.2064 44.107 38.2305 44.6699L32.4287 48.8066C30.6917 50.0452 28.3601 50.0452 26.623 48.8066L21.0117 44.8057C15.6374 41.8187 12 36.0846 12 29.5C12.0001 19.8351 19.8351 12 29.5 12Z" fill="var(--fill-0, white)"/>
</g>
<circle id="Ellipse 3164" cx="29.5" cy="29.5" r="14.5" fill="var(--fill-0, #2A3EF4)"/>
<g id="person">
<path id="icon" d="M29.5022 23.4574C28.0521 23.4574 26.8766 24.633 26.8766 26.083C26.8766 27.5331 28.0521 28.7087 29.5022 28.7087C30.9523 28.7087 32.1278 27.5331 32.1278 26.083C32.1278 24.633 30.9523 23.4574 29.5022 23.4574ZM25.3762 26.083C25.3762 23.8043 27.2235 21.9571 29.5022 21.9571C31.7809 21.9571 33.6282 23.8043 33.6282 26.083C33.6282 28.3618 31.7809 30.209 29.5022 30.209C27.2235 30.209 25.3762 28.3618 25.3762 26.083ZM29.5022 33.2097C27.2746 33.2097 25.3945 34.7041 24.8124 36.7454C24.7556 36.9446 24.559 37.0765 24.356 37.0352L23.6208 36.886C23.4178 36.8448 23.2855 36.6462 23.3387 36.446C24.0626 33.7191 26.5469 31.7094 29.5022 31.7094C32.4574 31.7094 34.9418 33.7191 35.6657 36.446C35.7188 36.6462 35.5866 36.8448 35.3836 36.886L34.6484 37.0352C34.4454 37.0765 34.2488 36.9446 34.192 36.7454C33.6098 34.7041 31.7298 33.2097 29.5022 33.2097Z" fill="var(--fill-0, white)"/>
</g>
</g>
<defs>
<filter id="filter0_d_0_12" x="0" y="0" width="59" height="61.7356" filterUnits="userSpaceOnUse" color-interpolation-filters="sRGB">
<feFlood flood-opacity="0" result="BackgroundImageFix"/>
<feColorMatrix in="SourceAlpha" type="matrix" values="0 0 0 0 0 0 0 0 0 0 0 0 0 0 0 0 0 0 127 0" result="hardAlpha"/>
<feOffset/>
<feGaussianBlur stdDeviation="6"/>
<feColorMatrix type="matrix" values="0 0 0 0 0 0 0 0 0 0 0 0 0 0 0 0 0 0 0.2 0"/>
<feBlend mode="normal" in2="BackgroundImageFix" result="effect1_dropShadow_0_12"/>
<feBlend mode="normal" in="SourceGraphic" in2="effect1_dropShadow_0_12" result="shape"/>
</filter>
</defs>
</svg>
