<svg width="284" height="197" viewBox="0 0 284 197" fill="none" xmlns="http://www.w3.org/2000/svg">
<path d="M246 110L133.458 129.831C132.822 129.943 132.201 130.132 131.611 130.393L33 174" stroke="#306BCF" stroke-width="8" stroke-linecap="square"/>
<path d="M246 106L134.629 125.625C133.235 125.871 131.8 125.742 130.472 125.252L62 100" stroke="#2A3EF4" stroke-width="8" stroke-linecap="square"/>
<path d="M250.229 107.192L251.618 115.071L251.792 116.057L250.808 116.229L134.326 136.755C134.088 136.797 133.855 136.869 133.633 136.967L31.3633 182.191L30.4492 182.596L30.0439 181.681L26.8086 174.363L26.4043 173.449L27.3193 173.044L129.589 127.82C130.548 127.396 131.556 127.089 132.59 126.907L249.071 106.382L250.057 106.208L250.229 107.192Z" fill="#9EE1DD" stroke="white" stroke-width="2" stroke-linecap="square"/>
<mask id="mask0_107_73011" style="mask-type:alpha" maskUnits="userSpaceOnUse" x="27" y="107" width="224" height="75">
<path d="M250.634 115.245L134.152 135.771C133.834 135.827 133.524 135.921 133.229 136.052L30.959 181.276L27.7236 173.959L129.993 128.735C130.879 128.344 131.809 128.06 132.764 127.892L249.245 107.366L250.634 115.245Z" fill="#009995"/>
</mask>
<g mask="url(#mask0_107_73011)">
<path d="M139.002 125.05L145.406 129.552L140.904 135.957" stroke="#C3E9E6" stroke-width="2"/>
<path d="M102.888 139L110.343 141.388L107.956 148.843" stroke="#C3E9E6" stroke-width="2"/>
<path d="M73.8877 152L81.3433 154.388L78.9557 161.843" stroke="#C3E9E6" stroke-width="2"/>
<path d="M173.553 119.025L179.957 123.527L175.455 129.932" stroke="#C3E9E6" stroke-width="2"/>
<path d="M208.103 113L214.507 117.502L210.004 123.907" stroke="#C3E9E6" stroke-width="2"/>
</g>
<mask id="path-10-outside-1_107_73011" maskUnits="userSpaceOnUse" x="52.8057" y="88.4668" width="200" height="48" fill="black">
<rect fill="white" x="52.8057" y="88.4668" width="200" height="48"/>
<path d="M134.686 117.748L235.586 99.626L235.635 99.6172L235.685 99.6084L247.685 97.6084L250.315 113.392L238.325 115.39L135.414 133.874L133.314 134.251L131.307 133.533L55.8057 106.533L61.1943 91.4668L134.686 117.748Z"/>
</mask>
<path d="M134.686 117.748L235.586 99.626L235.635 99.6172L235.685 99.6084L247.685 97.6084L250.315 113.392L238.325 115.39L135.414 133.874L133.314 134.251L131.307 133.533L55.8057 106.533L61.1943 91.4668L134.686 117.748Z" fill="#2232C3"/>
<path d="M134.686 117.748L134.012 119.631L134.514 119.811L135.039 119.717L134.686 117.748ZM235.586 99.626L235.939 101.594L235.94 101.594L235.586 99.626ZM235.635 99.6172L235.287 97.6476L235.28 97.6488L235.635 99.6172ZM235.685 99.6084L235.356 97.6356L235.346 97.6372L235.337 97.6388L235.685 99.6084ZM247.685 97.6084L249.657 97.2796L249.329 95.3068L247.356 95.6356L247.685 97.6084ZM250.315 113.392L250.644 115.364L252.617 115.036L252.288 113.063L250.315 113.392ZM238.325 115.39L237.996 113.417L237.984 113.419L237.972 113.421L238.325 115.39ZM135.414 133.874L135.767 135.843L135.768 135.843L135.414 133.874ZM133.314 134.251L132.641 136.134L133.143 136.314L133.668 136.22L133.314 134.251ZM131.307 133.533L130.633 135.416L130.633 135.416L131.307 133.533ZM55.8057 106.533L53.9225 105.86L53.2489 107.743L55.1322 108.416L55.8057 106.533ZM61.1943 91.4668L61.8678 89.5836L59.9847 88.9102L59.3112 90.7933L61.1943 91.4668ZM134.686 117.748L135.039 119.717L235.939 101.594L235.586 99.626L235.232 97.6575L134.332 115.78L134.686 117.748ZM235.586 99.626L235.94 101.594L235.989 101.586L235.635 99.6172L235.28 97.6488L235.232 97.6576L235.586 99.626ZM235.635 99.6172L235.982 101.587L236.032 101.578L235.685 99.6084L235.337 97.6388L235.287 97.6476L235.635 99.6172ZM235.685 99.6084L236.013 101.581L248.013 99.5812L247.685 97.6084L247.356 95.6356L235.356 97.6356L235.685 99.6084ZM247.685 97.6084L245.712 97.9372L248.343 113.72L250.315 113.392L252.288 113.063L249.657 97.2796L247.685 97.6084ZM250.315 113.392L249.987 111.419L237.996 113.417L238.325 115.39L238.654 117.362L250.644 115.364L250.315 113.392ZM238.325 115.39L237.972 113.421L135.06 131.906L135.414 133.874L135.768 135.843L238.679 117.358L238.325 115.39ZM135.414 133.874L135.061 131.905L132.961 132.282L133.314 134.251L133.668 136.22L135.767 135.843L135.414 133.874ZM133.314 134.251L133.988 132.368L131.98 131.65L131.307 133.533L130.633 135.416L132.641 136.134L133.314 134.251ZM131.307 133.533L131.98 131.65L56.4791 104.65L55.8057 106.533L55.1322 108.416L130.633 135.416L131.307 133.533ZM55.8057 106.533L57.6888 107.207L63.0775 92.1403L61.1943 91.4668L59.3112 90.7933L53.9225 105.86L55.8057 106.533ZM61.1943 91.4668L60.5209 93.35L134.012 119.631L134.686 117.748L135.359 115.865L61.8678 89.5836L61.1943 91.4668Z" fill="white" mask="url(#path-10-outside-1_107_73011)"/>
<mask id="mask1_107_73011" style="mask-type:alpha" maskUnits="userSpaceOnUse" x="55" y="91" width="198" height="44">
<path d="M134.686 117.748L235.586 99.626L246.5 97.5L252.5 113L238.414 115.374L133.314 134.251L55.8057 106.533L61.1943 91.4668L134.686 117.748Z" fill="#293DEF"/>
</mask>
<g mask="url(#mask1_107_73011)">
<path d="M87.458 99L94.0363 111.958L81.0783 118.536" stroke="#768BFF" stroke-width="3"/>
<path d="M123.458 112L130.036 124.958L117.078 131.536" stroke="#768BFF" stroke-width="3"/>
<path d="M161.317 110.216L173.703 117.818L166.102 130.203" stroke="#768BFF" stroke-width="3"/>
<path d="M201.102 104L213.487 111.601L205.886 123.987" stroke="#768BFF" stroke-width="3"/>
</g>
<g filter="url(#filter0_d_107_73011)">
<path d="M29.5 147.25C39.1649 147.25 46.9999 155.085 47 164.75C47 169.927 44.7513 174.577 41.1787 177.781L41.2002 177.803L40.9678 177.968C40.1223 178.702 39.2064 179.357 38.2305 179.92L32.4287 184.057C30.6917 185.295 28.3601 185.295 26.623 184.057L21.0117 180.056C15.6374 177.069 12 171.335 12 164.75C12.0001 155.085 19.8351 147.25 29.5 147.25Z" fill="white"/>
</g>
<circle cx="29.5" cy="164.75" r="15" fill="#9EE1DD"/>
<path d="M25.2242 170.75V168.518L29.5982 164.756C31.0202 163.514 31.5062 162.596 31.5062 161.552C31.5062 160.31 30.7502 159.482 29.3642 159.482C27.9422 159.482 27.0602 160.328 26.8082 161.858L24.8462 161.516C25.1522 159.212 26.8262 157.772 29.4362 157.772C32.0822 157.772 33.6842 159.158 33.6842 161.444C33.6842 163.064 32.7842 164.36 31.0562 165.854L27.4922 168.842V168.932H34.2062V170.75H25.2242Z" fill="white"/>
<g filter="url(#filter1_d_107_73011)">
<path d="M249.5 81.75C259.165 81.75 267 89.5851 267 99.25C267 104.427 264.751 109.077 261.179 112.281L261.2 112.303L260.968 112.468C260.122 113.202 259.206 113.857 258.23 114.42L252.429 118.557C250.692 119.795 248.36 119.795 246.623 118.557L241.012 114.556C235.637 111.569 232 105.835 232 99.25C232 89.5851 239.835 81.75 249.5 81.75Z" fill="white"/>
</g>
<circle cx="249.5" cy="99.25" r="15" fill="#2A3EF4"/>
<path fill-rule="evenodd" clip-rule="evenodd" d="M248.406 91.756C249.074 91.3457 249.916 91.3455 250.584 91.7554L256.844 95.5965C257.46 95.9749 257.836 96.6467 257.836 97.3704L257.836 106.063C257.836 106.729 257.296 107.269 256.63 107.269H254.234C253.568 107.269 253.028 106.729 253.028 106.063V105.308H245.951V106.063C245.951 106.729 245.411 107.269 244.745 107.269H242.37C241.704 107.269 241.164 106.729 241.164 106.063L241.164 97.3691C241.164 96.6458 241.539 95.9744 242.155 95.5958L248.406 91.756ZM249.714 93.1725C249.58 93.09 249.41 93.09 249.276 93.1726L243.026 97.0123C242.902 97.0885 242.826 97.2236 242.826 97.3691L242.826 105.606H244.289V99.2963C244.289 98.6301 244.829 98.09 245.495 98.09H253.484C254.15 98.09 254.69 98.6301 254.69 99.2963V105.606H256.174L256.174 97.3704C256.174 97.2248 256.098 97.0896 255.974 97.0135L249.714 93.1725ZM245.951 103.645H253.028V102.588H245.951V103.645ZM253.028 99.7525V100.926H245.951V99.7525H253.028Z" fill="white"/>
<g filter="url(#filter2_d_107_73011)">
<mask id="path-23-outside-2_107_73011" maskUnits="userSpaceOnUse" x="169.382" y="116" width="16" height="19" fill="black">
<rect fill="white" x="169.382" y="116" width="16" height="19"/>
<path fill-rule="evenodd" clip-rule="evenodd" d="M174.217 127L173.331 125.645C172.725 124.72 171.436 124.383 170.45 124.89L170.679 124.772C170.435 124.898 170.317 125.211 170.418 125.472L171.645 128.647C171.84 129.151 172.337 129.863 172.748 130.22C172.748 130.22 175.217 132.264 175.217 133.03V134H179.217L180.217 132L181.217 134H182.217V133.03C182.217 132.264 183.726 129.851 183.726 129.851C184.004 129.382 184.235 128.555 184.235 128.007V123.972C184.217 123.078 183.458 122.355 182.521 122.355C182.052 122.355 181.673 122.717 181.673 123.163V123.487C181.673 122.593 180.913 121.869 179.976 121.869C179.508 121.869 179.128 122.231 179.128 122.678V123.001C179.128 122.108 178.369 121.384 177.432 121.384C176.963 121.384 176.583 121.746 176.583 122.193V122.516C176.583 122.373 176.568 122.258 176.538 122.168L176.28 118.001C176.245 117.438 175.77 117 175.217 117C174.661 117 174.217 117.448 174.217 118V122V127ZM181.235 126L182.235 126V130H181.235V126V126ZM179.235 126L180.235 126V130H179.235V126V126ZM177.235 126L178.235 126V130H177.235V126V126Z"/>
</mask>
<path fill-rule="evenodd" clip-rule="evenodd" d="M174.217 127L173.331 125.645C172.725 124.72 171.436 124.383 170.45 124.89L170.679 124.772C170.435 124.898 170.317 125.211 170.418 125.472L171.645 128.647C171.84 129.151 172.337 129.863 172.748 130.22C172.748 130.22 175.217 132.264 175.217 133.03V134H179.217L180.217 132L181.217 134H182.217V133.03C182.217 132.264 183.726 129.851 183.726 129.851C184.004 129.382 184.235 128.555 184.235 128.007V123.972C184.217 123.078 183.458 122.355 182.521 122.355C182.052 122.355 181.673 122.717 181.673 123.163V123.487C181.673 122.593 180.913 121.869 179.976 121.869C179.508 121.869 179.128 122.231 179.128 122.678V123.001C179.128 122.108 178.369 121.384 177.432 121.384C176.963 121.384 176.583 121.746 176.583 122.193V122.516C176.583 122.373 176.568 122.258 176.538 122.168L176.28 118.001C176.245 117.438 175.77 117 175.217 117C174.661 117 174.217 117.448 174.217 118V122V127ZM181.235 126L182.235 126V130H181.235V126V126ZM179.235 126L180.235 126V130H179.235V126V126ZM177.235 126L178.235 126V130H177.235V126V126Z" fill="white"/>
<path d="M174.217 127L173.381 127.548L175.217 130.354V127H174.217ZM173.331 125.645L174.167 125.098V125.098L173.331 125.645ZM170.418 125.472L169.485 125.833V125.833L170.418 125.472ZM171.645 128.647L172.578 128.287V128.287L171.645 128.647ZM172.748 130.22L172.093 130.975L172.102 130.983L172.111 130.991L172.748 130.22ZM175.217 134H174.217V135H175.217V134ZM179.217 134V135H179.835L180.112 134.447L179.217 134ZM180.217 132L181.112 131.553L180.217 129.764L179.323 131.553L180.217 132ZM181.217 134L180.323 134.447L180.599 135H181.217V134ZM182.217 134V135H183.217V134H182.217ZM183.726 129.851L184.574 130.381L184.581 130.371L184.587 130.36L183.726 129.851ZM184.235 123.972H185.235V123.962L185.235 123.952L184.235 123.972ZM176.538 122.168L175.54 122.23L175.548 122.358L175.588 122.479L176.538 122.168ZM176.28 118.001L175.281 118.063V118.063L176.28 118.001ZM174.217 118H173.217H174.217ZM182.235 126H183.235V125H182.235V126ZM182.235 130V131H183.235V130H182.235ZM181.235 130H180.235V131H181.235V130ZM181.235 126M180.235 126H181.235V125H180.235V126ZM180.235 130V131H181.235V130H180.235ZM179.235 130H178.235V131H179.235V130ZM179.235 126M178.235 126H179.235V125H178.235V126ZM178.235 130V131H179.235V130H178.235ZM177.235 130H176.235V131H177.235V130ZM177.235 126M174.217 127L175.054 126.452L174.167 125.098L173.331 125.645L172.494 126.193L173.381 127.548L174.217 127ZM173.331 125.645L174.167 125.098C173.28 123.742 171.431 123.261 169.992 124.001L170.45 124.89L170.907 125.779C171.441 125.505 172.171 125.699 172.494 126.193L173.331 125.645ZM170.45 124.89L170.907 125.779L171.137 125.661L170.679 124.772L170.222 123.882L169.992 124.001L170.45 124.89ZM170.679 124.772L170.222 123.882C169.513 124.247 169.204 125.105 169.485 125.833L170.418 125.472L171.351 125.112C171.396 125.23 171.386 125.34 171.356 125.421C171.325 125.503 171.258 125.599 171.137 125.661L170.679 124.772ZM170.418 125.472L169.485 125.833L170.712 129.008L171.645 128.647L172.578 128.287L171.351 125.112L170.418 125.472ZM171.645 128.647L170.712 129.008C170.965 129.662 171.557 130.51 172.093 130.975L172.748 130.22L173.404 129.465C173.117 129.216 172.714 128.64 172.578 128.287L171.645 128.647ZM172.748 130.22C172.111 130.991 172.111 130.991 172.111 130.991C172.111 130.991 172.111 130.991 172.111 130.991C172.111 130.991 172.111 130.991 172.111 130.991C172.111 130.991 172.111 130.991 172.111 130.991C172.112 130.992 172.114 130.993 172.116 130.995C172.12 130.998 172.126 131.003 172.134 131.01C172.15 131.024 172.175 131.045 172.207 131.072C172.271 131.126 172.363 131.205 172.474 131.303C172.697 131.499 172.991 131.765 173.282 132.051C173.578 132.342 173.849 132.632 174.041 132.88C174.137 133.004 174.195 133.095 174.225 133.152C174.266 133.23 174.217 133.174 174.217 133.03H175.217H176.217C176.217 132.694 176.092 132.407 175.998 132.226C175.893 132.025 175.758 131.831 175.623 131.656C175.351 131.304 175.005 130.941 174.684 130.625C174.358 130.304 174.035 130.012 173.795 129.801C173.674 129.695 173.573 129.608 173.502 129.548C173.467 129.517 173.438 129.494 173.418 129.477C173.409 129.469 173.401 129.462 173.395 129.458C173.393 129.455 173.391 129.454 173.389 129.452C173.388 129.452 173.388 129.451 173.387 129.451C173.387 129.451 173.387 129.45 173.386 129.45C173.386 129.45 173.386 129.45 173.386 129.45C173.386 129.45 173.386 129.45 172.748 130.22ZM175.217 133.03H174.217V134H175.217H176.217V133.03H175.217ZM175.217 134V135H179.217V134V133H175.217V134ZM179.217 134L180.112 134.447L181.112 132.447L180.217 132L179.323 131.553L178.323 133.553L179.217 134ZM180.217 132L179.323 132.447L180.323 134.447L181.217 134L182.112 133.553L181.112 131.553L180.217 132ZM181.217 134V135H182.217V134V133H181.217V134ZM182.217 134H183.217V133.03H182.217H181.217V134H182.217ZM182.217 133.03H183.217C183.217 133.066 183.228 132.944 183.374 132.6C183.498 132.307 183.67 131.965 183.852 131.628C184.032 131.294 184.213 130.981 184.35 130.75C184.419 130.635 184.475 130.542 184.515 130.477C184.534 130.445 184.55 130.421 184.56 130.404C184.565 130.396 184.569 130.39 184.571 130.386C184.572 130.384 184.573 130.382 184.574 130.382C184.574 130.381 184.574 130.381 184.574 130.381C184.574 130.381 184.574 130.381 184.574 130.381C184.574 130.381 184.574 130.381 184.574 130.381C184.574 130.381 184.574 130.381 183.726 129.851C182.878 129.321 182.878 129.321 182.878 129.321C182.878 129.321 182.878 129.321 182.878 129.321C182.878 129.321 182.878 129.321 182.878 129.321C182.877 129.322 182.877 129.322 182.877 129.323C182.876 129.325 182.874 129.327 182.873 129.329C182.87 129.335 182.865 129.342 182.859 129.352C182.847 129.371 182.83 129.399 182.808 129.434C182.765 129.505 182.704 129.606 182.631 129.729C182.485 129.975 182.289 130.313 182.092 130.678C181.896 131.04 181.691 131.445 181.532 131.82C181.395 132.144 181.217 132.611 181.217 133.03H182.217ZM183.726 129.851L184.587 130.36C184.784 130.026 184.941 129.613 185.049 129.226C185.156 128.839 185.235 128.401 185.235 128.007H184.235H183.235C183.235 128.161 183.199 128.41 183.121 128.691C183.044 128.971 182.946 129.206 182.866 129.341L183.726 129.851ZM184.235 128.007H185.235V123.972H184.235H183.235V128.007H184.235ZM184.235 123.972L185.235 123.952C185.206 122.482 183.97 121.355 182.521 121.355V122.355V123.355C182.946 123.355 183.229 123.675 183.236 123.992L184.235 123.972ZM182.521 122.355V121.355C181.546 121.355 180.673 122.12 180.673 123.163H181.673H182.673C182.673 123.232 182.642 123.286 182.611 123.315C182.581 123.344 182.547 123.355 182.521 123.355V122.355ZM181.673 123.163H180.673V123.487H181.673H182.673V123.163H181.673ZM181.673 123.487H182.673C182.673 121.997 181.42 120.869 179.976 120.869V121.869V122.869C180.407 122.869 180.673 123.19 180.673 123.487H181.673ZM179.976 121.869V120.869C179.001 120.869 178.128 121.635 178.128 122.678H179.128H180.128C180.128 122.746 180.097 122.801 180.066 122.83C180.037 122.859 180.002 122.869 179.976 122.869V121.869ZM179.128 122.678H178.128V123.001H179.128H180.128V122.678H179.128ZM179.128 123.001H180.128C180.128 121.511 178.875 120.384 177.432 120.384V121.384V122.384C177.862 122.384 178.128 122.705 178.128 123.001H179.128ZM177.432 121.384V120.384C176.456 120.384 175.583 121.149 175.583 122.193H176.583H177.583C177.583 122.261 177.553 122.315 177.522 122.345C177.492 122.373 177.458 122.384 177.432 122.384V121.384ZM176.583 122.193H175.583V122.516H176.583H177.583V122.193H176.583ZM176.583 122.516H177.583C177.583 122.309 177.562 122.081 177.489 121.857L176.538 122.168L175.588 122.479C175.58 122.456 175.579 122.444 175.58 122.452C175.581 122.459 175.583 122.479 175.583 122.516H176.583ZM176.538 122.168L177.536 122.106L177.278 117.939L176.28 118.001L175.281 118.063L175.54 122.23L176.538 122.168ZM176.28 118.001L177.278 117.939C177.21 116.845 176.294 116 175.217 116V117V118C175.226 118 175.242 118.003 175.259 118.019C175.275 118.034 175.281 118.05 175.281 118.063L176.28 118.001ZM175.217 117V116C174.107 116 173.217 116.898 173.217 118H174.217H175.217V118V117ZM174.217 118H173.217V122H174.217H175.217V118H174.217ZM174.217 122H173.217V127H174.217H175.217V122H174.217ZM181.235 126V127H182.235V126V125H181.235V126ZM182.235 126H181.235V130H182.235H183.235V126H182.235ZM182.235 130V129H181.235V130V131H182.235V130ZM181.235 130H182.235V126H181.235H180.235V130H181.235ZM181.235 126M179.235 126V127H180.235V126V125H179.235V126ZM180.235 126H179.235V130H180.235H181.235V126H180.235ZM180.235 130V129H179.235V130V131H180.235V130ZM179.235 130H180.235V126H179.235H178.235V130H179.235ZM179.235 126M177.235 126V127H178.235V126V125H177.235V126ZM178.235 126H177.235V130H178.235H179.235V126H178.235ZM178.235 130V129H177.235V130V131H178.235V130ZM177.235 130H178.235V126H177.235H176.235V130H177.235ZM177.235 126" fill="black" mask="url(#path-23-outside-2_107_73011)"/>
</g>
<g filter="url(#filter3_d_107_73011)">
<rect x="101.5" y="12" width="141" height="86" rx="4" fill="white" fill-opacity="0.95"/>
<path d="M113.788 33L116.584 24.54H118.684L121.48 33H119.992L119.308 30.744H115.96L115.276 33H113.788ZM116.308 29.616H118.96L117.664 25.368H117.604L116.308 29.616ZM123.786 33V25.728H121.314V24.54H127.674V25.728H125.202V33H123.786ZM129.027 33V24.54H130.455V31.812H134.163V33H129.027ZM144.214 33V29.172H140.134V33H138.706V24.54H140.134V27.972H144.214V24.54H145.642V33H144.214ZM150.085 33.144C148.393 33.144 147.397 32.316 147.397 30.528V26.616H148.777V30.492C148.777 31.548 149.269 32.028 150.085 32.028C150.865 32.028 151.381 31.548 151.381 30.492V26.616H152.761V30.528C152.761 32.316 151.741 33.144 150.085 33.144ZM157.395 32.076C158.439 32.076 159.063 31.2 159.063 29.796C159.063 28.404 158.439 27.54 157.395 27.54C156.363 27.54 155.679 28.464 155.679 29.796C155.679 31.2 156.327 32.076 157.395 32.076ZM154.383 33V24.18H155.763V27.768H155.823C156.111 27.06 156.843 26.472 157.779 26.472C159.399 26.472 160.479 27.756 160.479 29.796C160.479 31.848 159.399 33.144 157.767 33.144C156.819 33.144 156.027 32.58 155.751 31.872H155.679V33H154.383ZM164.594 28.272H171.314L168.902 26.088L169.694 25.308L173.234 28.86L169.694 32.4L168.902 31.62L171.314 29.436H164.594V28.272ZM177.835 33V24.54H183.115V25.716H179.263V27.996H182.479V29.148H179.263V31.824H183.127V33H177.835ZM186.105 33L184.208 24.54H185.709L187.113 31.944H187.173L188.613 24.54H190.797L192.237 31.944H192.297L193.701 24.54H195.201L193.305 33H191.265L189.741 25.596H189.657L188.145 33H186.105ZM196.55 33V24.54H199.826C201.65 24.54 202.826 25.464 202.826 27.024C202.826 28.272 202.034 29.136 200.762 29.376L203.066 33H201.458L199.322 29.508H197.978V33H196.55ZM197.978 28.476H199.634C200.75 28.476 201.386 28.032 201.386 27.072C201.386 26.1 200.75 25.668 199.634 25.668H197.978V28.476ZM213.168 33V29.172H209.088V33H207.66V24.54H209.088V27.972H213.168V24.54H214.596V33H213.168ZM219.038 33.144C217.346 33.144 216.35 32.316 216.35 30.528V26.616H217.73V30.492C217.73 31.548 218.222 32.028 219.038 32.028C219.818 32.028 220.334 31.548 220.334 30.492V26.616H221.714V30.528C221.714 32.316 220.694 33.144 219.038 33.144ZM226.348 32.076C227.392 32.076 228.016 31.2 228.016 29.796C228.016 28.404 227.392 27.54 226.348 27.54C225.316 27.54 224.632 28.464 224.632 29.796C224.632 31.2 225.28 32.076 226.348 32.076ZM223.336 33V24.18H224.716V27.768H224.776C225.064 27.06 225.796 26.472 226.732 26.472C228.352 26.472 229.432 27.756 229.432 29.796C229.432 31.848 228.352 33.144 226.72 33.144C225.772 33.144 224.98 32.58 224.704 31.872H224.632V33H223.336Z" fill="#171718"/>
<path d="M116.512 59V51.464H113.896V50.54H120.184V51.464H117.568V59H116.512ZM123.087 59.144C121.203 59.144 120.087 57.812 120.087 55.796C120.087 53.828 121.347 52.508 123.039 52.508C124.743 52.508 125.847 53.624 125.847 55.436C125.847 55.664 125.835 55.904 125.823 56.036H121.143C121.203 57.476 121.875 58.292 123.159 58.292C123.927 58.292 124.503 57.992 124.863 57.332L125.679 57.728C125.247 58.664 124.371 59.144 123.087 59.144ZM121.155 55.28H124.839C124.803 54.032 124.095 53.324 123.027 53.324C122.031 53.324 121.275 53.9 121.155 55.28ZM131.053 59L129.301 56.252H129.241L127.501 59H126.349L128.581 55.652L126.613 52.652H127.765L129.253 55.052H129.301L130.741 52.652H131.893L129.949 55.64L132.205 59H131.053ZM135.641 59.12C134.573 59.12 134.009 58.556 134.009 57.344V53.432H132.833V52.652H134.009V51.224L135.029 50.576V52.652H136.493V53.432H135.029V57.236C135.029 57.932 135.329 58.256 135.869 58.256C136.037 58.256 136.253 58.232 136.493 58.112V58.952C136.217 59.084 135.953 59.12 135.641 59.12ZM140.978 59V50.18H141.998V53.66H142.046C142.37 52.952 143.054 52.508 143.954 52.508C145.322 52.508 146.162 53.288 146.162 54.824V59H145.142V54.944C145.142 53.876 144.542 53.384 143.69 53.384C142.67 53.384 141.998 53.996 141.998 55.16V59H140.978ZM150.532 59.144C148.648 59.144 147.532 57.812 147.532 55.796C147.532 53.828 148.792 52.508 150.484 52.508C152.188 52.508 153.292 53.624 153.292 55.436C153.292 55.664 153.28 55.904 153.268 56.036H148.588C148.648 57.476 149.32 58.292 150.604 58.292C151.372 58.292 151.948 57.992 152.308 57.332L153.124 57.728C152.692 58.664 151.816 59.144 150.532 59.144ZM148.6 55.28H152.284C152.248 54.032 151.54 53.324 150.472 53.324C149.476 53.324 148.72 53.9 148.6 55.28ZM154.701 59V52.652H155.649V53.876H155.685C155.901 53.048 156.549 52.508 157.353 52.508C157.509 52.508 157.665 52.532 157.761 52.568V53.492C157.653 53.468 157.497 53.456 157.317 53.456C156.381 53.456 155.721 54.164 155.721 55.172V59H154.701ZM161.243 59.144C159.359 59.144 158.243 57.812 158.243 55.796C158.243 53.828 159.503 52.508 161.195 52.508C162.899 52.508 164.003 53.624 164.003 55.436C164.003 55.664 163.991 55.904 163.979 56.036H159.299C159.359 57.476 160.031 58.292 161.315 58.292C162.083 58.292 162.659 57.992 163.019 57.332L163.835 57.728C163.403 58.664 162.527 59.144 161.243 59.144ZM159.311 55.28H162.995C162.959 54.032 162.251 53.324 161.183 53.324C160.187 53.324 159.431 53.9 159.311 55.28Z" fill="#6C6D6F"/>
<path d="M173.489 59V51.464H170.873V50.54H177.161V51.464H174.545V59H173.489ZM180.063 59.144C178.179 59.144 177.063 57.812 177.063 55.796C177.063 53.828 178.323 52.508 180.015 52.508C181.719 52.508 182.823 53.624 182.823 55.436C182.823 55.664 182.811 55.904 182.799 56.036H178.119C178.179 57.476 178.851 58.292 180.135 58.292C180.903 58.292 181.479 57.992 181.839 57.332L182.655 57.728C182.223 58.664 181.347 59.144 180.063 59.144ZM178.131 55.28H181.815C181.779 54.032 181.071 53.324 180.003 53.324C179.007 53.324 178.251 53.9 178.131 55.28ZM188.03 59L186.278 56.252H186.218L184.478 59H183.326L185.558 55.652L183.59 52.652H184.742L186.23 55.052H186.278L187.718 52.652H188.87L186.926 55.64L189.182 59H188.03ZM192.618 59.12C191.55 59.12 190.986 58.556 190.986 57.344V53.432H189.81V52.652H190.986V51.224L192.006 50.576V52.652H193.47V53.432H192.006V57.236C192.006 57.932 192.306 58.256 192.846 58.256C193.014 58.256 193.23 58.232 193.47 58.112V58.952C193.194 59.084 192.93 59.12 192.618 59.12ZM197.954 59V50.18H198.974V53.66H199.022C199.346 52.952 200.03 52.508 200.93 52.508C202.298 52.508 203.138 53.288 203.138 54.824V59H202.118V54.944C202.118 53.876 201.518 53.384 200.666 53.384C199.646 53.384 198.974 53.996 198.974 55.16V59H197.954ZM207.509 59.144C205.625 59.144 204.509 57.812 204.509 55.796C204.509 53.828 205.769 52.508 207.461 52.508C209.165 52.508 210.269 53.624 210.269 55.436C210.269 55.664 210.257 55.904 210.245 56.036H205.565C205.625 57.476 206.297 58.292 207.581 58.292C208.349 58.292 208.925 57.992 209.285 57.332L210.101 57.728C209.669 58.664 208.793 59.144 207.509 59.144ZM205.577 55.28H209.261C209.225 54.032 208.517 53.324 207.449 53.324C206.453 53.324 205.697 53.9 205.577 55.28ZM211.677 59V52.652H212.625V53.876H212.661C212.877 53.048 213.525 52.508 214.329 52.508C214.485 52.508 214.641 52.532 214.737 52.568V53.492C214.629 53.468 214.473 53.456 214.293 53.456C213.357 53.456 212.697 54.164 212.697 55.172V59H211.677ZM218.22 59.144C216.336 59.144 215.22 57.812 215.22 55.796C215.22 53.828 216.48 52.508 218.172 52.508C219.876 52.508 220.98 53.624 220.98 55.436C220.98 55.664 220.968 55.904 220.956 56.036H216.276C216.336 57.476 217.008 58.292 218.292 58.292C219.06 58.292 219.636 57.992 219.996 57.332L220.812 57.728C220.38 58.664 219.504 59.144 218.22 59.144ZM216.288 55.28H219.972C219.936 54.032 219.228 53.324 218.16 53.324C217.164 53.324 216.408 53.9 216.288 55.28Z" fill="#171718"/>
<path d="M116.512 85V77.464H113.896V76.54H120.184V77.464H117.568V85H116.512ZM123.087 85.144C121.203 85.144 120.087 83.812 120.087 81.796C120.087 79.828 121.347 78.508 123.039 78.508C124.743 78.508 125.847 79.624 125.847 81.436C125.847 81.664 125.835 81.904 125.823 82.036H121.143C121.203 83.476 121.875 84.292 123.159 84.292C123.927 84.292 124.503 83.992 124.863 83.332L125.679 83.728C125.247 84.664 124.371 85.144 123.087 85.144ZM121.155 81.28H124.839C124.803 80.032 124.095 79.324 123.027 79.324C122.031 79.324 121.275 79.9 121.155 81.28ZM131.053 85L129.301 82.252H129.241L127.501 85H126.349L128.581 81.652L126.613 78.652H127.765L129.253 81.052H129.301L130.741 78.652H131.893L129.949 81.64L132.205 85H131.053ZM135.641 85.12C134.573 85.12 134.009 84.556 134.009 83.344V79.432H132.833V78.652H134.009V77.224L135.029 76.576V78.652H136.493V79.432H135.029V83.236C135.029 83.932 135.329 84.256 135.869 84.256C136.037 84.256 136.253 84.232 136.493 84.112V84.952C136.217 85.084 135.953 85.12 135.641 85.12ZM140.978 85V76.18H141.998V79.66H142.046C142.37 78.952 143.054 78.508 143.954 78.508C145.322 78.508 146.162 79.288 146.162 80.824V85H145.142V80.944C145.142 79.876 144.542 79.384 143.69 79.384C142.67 79.384 141.998 79.996 141.998 81.16V85H140.978ZM150.532 85.144C148.648 85.144 147.532 83.812 147.532 81.796C147.532 79.828 148.792 78.508 150.484 78.508C152.188 78.508 153.292 79.624 153.292 81.436C153.292 81.664 153.28 81.904 153.268 82.036H148.588C148.648 83.476 149.32 84.292 150.604 84.292C151.372 84.292 151.948 83.992 152.308 83.332L153.124 83.728C152.692 84.664 151.816 85.144 150.532 85.144ZM148.6 81.28H152.284C152.248 80.032 151.54 79.324 150.472 79.324C149.476 79.324 148.72 79.9 148.6 81.28ZM154.701 85V78.652H155.649V79.876H155.685C155.901 79.048 156.549 78.508 157.353 78.508C157.509 78.508 157.665 78.532 157.761 78.568V79.492C157.653 79.468 157.497 79.456 157.317 79.456C156.381 79.456 155.721 80.164 155.721 81.172V85H154.701ZM161.243 85.144C159.359 85.144 158.243 83.812 158.243 81.796C158.243 79.828 159.503 78.508 161.195 78.508C162.899 78.508 164.003 79.624 164.003 81.436C164.003 81.664 163.991 81.904 163.979 82.036H159.299C159.359 83.476 160.031 84.292 161.315 84.292C162.083 84.292 162.659 83.992 163.019 83.332L163.835 83.728C163.403 84.664 162.527 85.144 161.243 85.144ZM159.311 81.28H162.995C162.959 80.032 162.251 79.324 161.183 79.324C160.187 79.324 159.431 79.9 159.311 81.28Z" fill="#6C6D6F"/>
<path d="M173.489 85V77.464H170.873V76.54H177.161V77.464H174.545V85H173.489ZM180.063 85.144C178.179 85.144 177.063 83.812 177.063 81.796C177.063 79.828 178.323 78.508 180.015 78.508C181.719 78.508 182.823 79.624 182.823 81.436C182.823 81.664 182.811 81.904 182.799 82.036H178.119C178.179 83.476 178.851 84.292 180.135 84.292C180.903 84.292 181.479 83.992 181.839 83.332L182.655 83.728C182.223 84.664 181.347 85.144 180.063 85.144ZM178.131 81.28H181.815C181.779 80.032 181.071 79.324 180.003 79.324C179.007 79.324 178.251 79.9 178.131 81.28ZM188.03 85L186.278 82.252H186.218L184.478 85H183.326L185.558 81.652L183.59 78.652H184.742L186.23 81.052H186.278L187.718 78.652H188.87L186.926 81.64L189.182 85H188.03ZM192.618 85.12C191.55 85.12 190.986 84.556 190.986 83.344V79.432H189.81V78.652H190.986V77.224L192.006 76.576V78.652H193.47V79.432H192.006V83.236C192.006 83.932 192.306 84.256 192.846 84.256C193.014 84.256 193.23 84.232 193.47 84.112V84.952C193.194 85.084 192.93 85.12 192.618 85.12ZM197.954 85V76.18H198.974V79.66H199.022C199.346 78.952 200.03 78.508 200.93 78.508C202.298 78.508 203.138 79.288 203.138 80.824V85H202.118V80.944C202.118 79.876 201.518 79.384 200.666 79.384C199.646 79.384 198.974 79.996 198.974 81.16V85H197.954ZM207.509 85.144C205.625 85.144 204.509 83.812 204.509 81.796C204.509 79.828 205.769 78.508 207.461 78.508C209.165 78.508 210.269 79.624 210.269 81.436C210.269 81.664 210.257 81.904 210.245 82.036H205.565C205.625 83.476 206.297 84.292 207.581 84.292C208.349 84.292 208.925 83.992 209.285 83.332L210.101 83.728C209.669 84.664 208.793 85.144 207.509 85.144ZM205.577 81.28H209.261C209.225 80.032 208.517 79.324 207.449 79.324C206.453 79.324 205.697 79.9 205.577 81.28ZM211.677 85V78.652H212.625V79.876H212.661C212.877 79.048 213.525 78.508 214.329 78.508C214.485 78.508 214.641 78.532 214.737 78.568V79.492C214.629 79.468 214.473 79.456 214.293 79.456C213.357 79.456 212.697 80.164 212.697 81.172V85H211.677ZM218.22 85.144C216.336 85.144 215.22 83.812 215.22 81.796C215.22 79.828 216.48 78.508 218.172 78.508C219.876 78.508 220.98 79.624 220.98 81.436C220.98 81.664 220.968 81.904 220.956 82.036H216.276C216.336 83.476 217.008 84.292 218.292 84.292C219.06 84.292 219.636 83.992 219.996 83.332L220.812 83.728C220.38 84.664 219.504 85.144 218.22 85.144ZM216.288 81.28H219.972C219.936 80.032 219.228 79.324 218.16 79.324C217.164 79.324 216.408 79.9 216.288 81.28Z" fill="#171718"/>
</g>
<g filter="url(#filter4_d_107_73011)">
<path d="M54.5 69.25C64.1649 69.25 71.9999 77.0851 72 86.75C72 91.9266 69.7513 96.5773 66.1787 99.7812L66.2002 99.8027L65.9678 99.9678C65.1223 100.702 64.2064 101.357 63.2305 101.92L57.4287 106.057C55.6917 107.295 53.3601 107.295 51.623 106.057L46.0117 102.056C40.6374 99.0687 37 93.3346 37 86.75C37.0001 77.0851 44.8351 69.25 54.5 69.25Z" fill="white"/>
</g>
<circle cx="54.5" cy="86.75" r="15" fill="#2A3EF4"/>
<path d="M54.9388 92.7505V81.8965H54.8488L51.3748 85.0645V82.8325L54.4888 80.0605H57.0448V92.7505H54.9388Z" fill="white"/>
<defs>
<filter id="filter0_d_107_73011" x="0" y="135.25" width="59" height="61.7356" filterUnits="userSpaceOnUse" color-interpolation-filters="sRGB">
<feFlood flood-opacity="0" result="BackgroundImageFix"/>
<feColorMatrix in="SourceAlpha" type="matrix" values="0 0 0 0 0 0 0 0 0 0 0 0 0 0 0 0 0 0 127 0" result="hardAlpha"/>
<feOffset/>
<feGaussianBlur stdDeviation="6"/>
<feColorMatrix type="matrix" values="0 0 0 0 0 0 0 0 0 0 0 0 0 0 0 0 0 0 0.2 0"/>
<feBlend mode="normal" in2="BackgroundImageFix" result="effect1_dropShadow_107_73011"/>
<feBlend mode="normal" in="SourceGraphic" in2="effect1_dropShadow_107_73011" result="shape"/>
</filter>
<filter id="filter1_d_107_73011" x="220" y="69.75" width="59" height="61.7356" filterUnits="userSpaceOnUse" color-interpolation-filters="sRGB">
<feFlood flood-opacity="0" result="BackgroundImageFix"/>
<feColorMatrix in="SourceAlpha" type="matrix" values="0 0 0 0 0 0 0 0 0 0 0 0 0 0 0 0 0 0 127 0" result="hardAlpha"/>
<feOffset/>
<feGaussianBlur stdDeviation="6"/>
<feColorMatrix type="matrix" values="0 0 0 0 0 0 0 0 0 0 0 0 0 0 0 0 0 0 0.2 0"/>
<feBlend mode="normal" in2="BackgroundImageFix" result="effect1_dropShadow_107_73011"/>
<feBlend mode="normal" in="SourceGraphic" in2="effect1_dropShadow_107_73011" result="shape"/>
</filter>
<filter id="filter2_d_107_73011" x="166.382" y="114" width="21.8535" height="25" filterUnits="userSpaceOnUse" color-interpolation-filters="sRGB">
<feFlood flood-opacity="0" result="BackgroundImageFix"/>
<feColorMatrix in="SourceAlpha" type="matrix" values="0 0 0 0 0 0 0 0 0 0 0 0 0 0 0 0 0 0 127 0" result="hardAlpha"/>
<feOffset dy="1"/>
<feGaussianBlur stdDeviation="1.5"/>
<feColorMatrix type="matrix" values="0 0 0 0 0 0 0 0 0 0 0 0 0 0 0 0 0 0 0.2 0"/>
<feBlend mode="normal" in2="BackgroundImageFix" result="effect1_dropShadow_107_73011"/>
<feBlend mode="normal" in="SourceGraphic" in2="effect1_dropShadow_107_73011" result="shape"/>
</filter>
<filter id="filter3_d_107_73011" x="81.5" y="0" width="181" height="126" filterUnits="userSpaceOnUse" color-interpolation-filters="sRGB">
<feFlood flood-opacity="0" result="BackgroundImageFix"/>
<feColorMatrix in="SourceAlpha" type="matrix" values="0 0 0 0 0 0 0 0 0 0 0 0 0 0 0 0 0 0 127 0" result="hardAlpha"/>
<feOffset dy="8"/>
<feGaussianBlur stdDeviation="10"/>
<feColorMatrix type="matrix" values="0 0 0 0 0 0 0 0 0 0 0 0 0 0 0 0 0 0 0.12 0"/>
<feBlend mode="normal" in2="BackgroundImageFix" result="effect1_dropShadow_107_73011"/>
<feBlend mode="normal" in="SourceGraphic" in2="effect1_dropShadow_107_73011" result="shape"/>
</filter>
<filter id="filter4_d_107_73011" x="25" y="57.25" width="59" height="61.7356" filterUnits="userSpaceOnUse" color-interpolation-filters="sRGB">
<feFlood flood-opacity="0" result="BackgroundImageFix"/>
<feColorMatrix in="SourceAlpha" type="matrix" values="0 0 0 0 0 0 0 0 0 0 0 0 0 0 0 0 0 0 127 0" result="hardAlpha"/>
<feOffset/>
<feGaussianBlur stdDeviation="6"/>
<feColorMatrix type="matrix" values="0 0 0 0 0 0 0 0 0 0 0 0 0 0 0 0 0 0 0.2 0"/>
<feBlend mode="normal" in2="BackgroundImageFix" result="effect1_dropShadow_107_73011"/>
<feBlend mode="normal" in="SourceGraphic" in2="effect1_dropShadow_107_73011" result="shape"/>
</filter>
</defs>
</svg>
