<svg width="164" height="187" viewBox="0 0 164 187" fill="none" xmlns="http://www.w3.org/2000/svg">
<path fill-rule="evenodd" clip-rule="evenodd" d="M98.8236 0C110.447 5.64781e-05 120.111 8.94199 121.006 20.5234L122.766 43.29H133.994C144.703 43.2902 153.604 51.5387 154.418 62.2168L162.221 164.548C163.128 176.44 153.723 186.59 141.796 186.59H22.1059C10.179 186.59 0.774447 176.44 1.68107 164.548L9.48381 62.2168C10.2981 51.5388 19.1996 43.2903 29.9086 43.29H41.1225L42.8822 20.5234C43.7772 8.94193 53.4417 -3.3823e-10 65.0649 0H98.8236ZM65.0649 14.1006C60.8126 14.1006 57.2762 17.3714 56.9487 21.6084L55.2729 43.29H108.616L106.94 21.6084C106.612 17.3715 103.076 14.1006 98.8236 14.1006H65.0649Z" fill="black"/>
<path d="M98.8595 70.5867L84.1115 70.5867L84.1115 133.195C84.1115 141.399 78.2109 146.677 71.0375 146.677C63.8641 146.677 57.4862 141.399 57.4862 133.195C57.4862 123.715 64.8983 118.711 74.7833 119.748L74.7833 103.885C73.3479 103.646 71.9126 103.567 70.7193 103.567C54.5359 103.567 40.9846 116.551 40.9846 132.642C40.9846 149.687 54.3768 162.75 70.7988 162.75C85.2287 162.75 100.534 152.158 100.534 132.165L100.534 99.5857C106.911 105.958 114.645 107.949 122.936 107.949L122.936 93.2924C112.732 92.577 101.412 85.8862 98.8595 70.5901L98.8595 70.5867Z" fill="white"/>
</svg>
